<svg width="1024" height="1024" viewBox="0 0 1024 1024" fill="none" xmlns="http://www.w3.org/2000/svg">
<path d="M764.6 67.2287C758.183 68.9398 746.633 73.4314 738.933 77.0675C730.806 81.1314 718.828 89.9008 710.059 98.2423C700.22 107.439 692.306 117.492 687.173 127.117C682.895 135.245 677.762 147.65 676.05 154.708C674.125 161.981 672.628 176.097 672.628 186.792C672.628 197.272 674.125 211.816 676.05 218.875C677.975 225.933 682.895 238.338 687.173 246.68C692.092 256.305 700.22 266.999 709.845 276.624C719.47 286.035 730.164 294.163 738.933 298.441C746.633 302.29 758.611 306.782 765.669 308.707C772.727 310.418 786.202 311.915 795.613 311.915C805.024 311.915 818.713 310.418 826.199 308.707C833.471 306.996 844.593 302.932 850.582 299.938C856.785 296.729 866.41 290.741 871.757 286.463C877.104 282.185 885.66 274.057 890.579 268.069C895.499 262.294 902.771 250.744 906.621 242.402C910.685 234.061 915.176 222.083 916.673 215.666C918.17 209.25 919.24 196.203 919.24 186.792C919.24 177.38 917.529 163.478 915.39 155.778C913.465 148.078 908.76 136.1 905.123 129.042C901.273 121.556 891.649 109.364 882.238 99.9534C871.115 88.8313 861.918 81.773 852.293 77.0675C844.593 73.4314 832.616 68.9398 825.557 67.0148C818.499 65.3037 804.597 63.8065 794.544 64.0204C784.491 64.0204 771.016 65.5176 764.6 67.2287ZM121.869 142.517C117.164 144.656 111.603 149.147 109.464 152.142C107.539 155.35 105.186 160.483 104.545 163.906C103.689 167.114 103.903 173.531 104.759 178.236C106.042 185.508 110.533 191.069 133.419 214.169C151.386 232.42 163.935 243.328 171.063 246.894L181.758 252.027C363.134 252.027 413.825 252.883 424.092 254.38C433.075 255.663 447.192 258.871 455.533 261.866C463.875 264.646 475.639 270.207 482.055 274.057C488.472 277.693 500.022 287.318 507.722 295.018C516.063 303.36 525.046 315.124 529.752 323.893C534.03 332.021 539.163 344.426 540.874 351.484C542.799 358.543 544.296 372.873 544.296 383.567C544.296 394.048 542.799 408.164 541.088 414.581C539.377 420.998 535.099 432.12 531.677 439.178C528.041 446.236 520.555 457.358 514.78 463.775C509.219 470.192 497.669 480.031 489.541 485.378C481.413 490.939 469.008 497.355 461.95 499.922C454.891 502.702 444.197 505.697 438.422 506.98C432.433 508.05 403.559 509.761 374.256 510.616C325.49 511.9 319.929 512.541 310.518 516.819C303.032 520.241 299.396 523.663 296.187 530.08C293.835 534.786 291.91 541.63 291.91 545.052C291.91 548.474 293.193 554.677 294.69 558.313C296.401 562.163 315.223 584.193 337.04 607.079C358.642 630.179 389.87 663.332 406.339 680.87C422.808 698.409 467.297 744.609 505.155 783.536L574.027 854.119C553.493 876.577 542.371 888.768 536.168 895.827C528.682 904.596 525.046 910.585 525.046 914.435C524.832 917.857 526.971 922.349 529.538 924.701C532.746 927.696 540.874 930.049 556.916 932.615C569.321 934.754 612.954 941.812 653.806 948.229C694.873 954.646 731.875 959.993 736.153 959.993C740.644 959.993 747.489 958.068 751.125 955.715C754.975 953.362 760.108 948.229 762.461 944.379C764.814 940.743 766.739 934.112 766.739 930.049C766.739 925.985 759.039 886.416 749.628 842.355C740.217 798.294 730.806 755.517 728.881 747.175C726.742 738.834 723.533 730.064 721.395 727.284C719.042 724.503 715.192 722.578 711.556 722.578C707.064 722.578 700.22 728.139 678.403 750.384L651.24 778.189C560.979 682.795 526.971 647.076 517.56 637.023C508.149 626.971 498.738 616.704 496.599 613.924C492.963 609.218 492.963 609.218 500.877 606.865C505.369 605.582 517.56 600.021 528.255 594.888C538.949 589.541 553.279 581.199 560.338 576.066C567.396 570.932 579.374 561.308 586.86 554.463C594.346 547.405 606.323 534.144 613.168 524.733C620.226 515.322 630.706 497.997 636.481 486.233C642.042 474.469 649.315 455.22 652.309 443.456C656.159 428.912 658.298 413.939 659.153 396.401C660.009 377.793 659.367 364.745 656.801 349.346C654.876 337.582 650.17 319.188 646.748 308.707C643.112 298.227 636.268 281.757 631.348 272.346C626.429 262.935 617.018 247.963 610.387 239.194C603.757 230.424 592.207 217.377 584.721 210.533C577.235 203.475 564.402 193.208 556.06 187.219C547.718 181.444 534.885 173.531 527.185 169.681C519.485 165.831 505.155 159.842 495.102 156.206C485.049 152.783 466.227 147.65 453.394 144.87C430.294 139.95 427.3 139.95 280.146 139.309C138.767 138.667 129.997 138.881 121.869 142.517Z" fill="url(#paint0_linear_6_2)"/>
<defs>
<linearGradient id="paint0_linear_6_2" x1="103.689" y1="63.8066" x2="918.598" y2="959.993" gradientUnits="userSpaceOnUse">
<stop stop-color="#27E6E6"/>
<stop offset="1" stop-color="#632EFF"/>
</linearGradient>
</defs>
</svg>
